<svg width="14" height="14" viewBox="0 0 14 14" fill="none" xmlns="http://www.w3.org/2000/svg">
<path fill-rule="evenodd" clip-rule="evenodd" d="M0.335938 6.66276C0.335938 2.98076 3.3206 -0.00390625 7.0026 -0.00390625C10.6846 -0.00390625 13.6693 2.98076 13.6693 6.66276C13.6693 10.3448 10.6846 13.3294 7.0026 13.3294C3.3206 13.3294 0.335938 10.3448 0.335938 6.66276ZM7.0026 1.32943C5.58812 1.32943 4.23156 1.89133 3.23137 2.89152C2.23117 3.89172 1.66927 5.24827 1.66927 6.66276C1.66927 8.07725 2.23117 9.4338 3.23137 10.434C4.23156 11.4342 5.58812 11.9961 7.0026 11.9961C8.41709 11.9961 9.77365 11.4342 10.7738 10.434C11.774 9.4338 12.3359 8.07725 12.3359 6.66276C12.3359 5.24827 11.774 3.89172 10.7738 2.89152C9.77365 1.89133 8.41709 1.32943 7.0026 1.32943Z" fill="#6083F2"/>
<path fill-rule="evenodd" clip-rule="evenodd" d="M7.66667 3.33073C7.66667 3.15392 7.59643 2.98435 7.4714 2.85932C7.34638 2.7343 7.17681 2.66406 7 2.66406C6.82319 2.66406 6.65362 2.7343 6.5286 2.85932C6.40357 2.98435 6.33333 3.15392 6.33333 3.33073V5.9974H3.66667C3.48986 5.9974 3.32029 6.06763 3.19526 6.19266C3.07024 6.31768 3 6.48725 3 6.66406C3 6.84087 3.07024 7.01044 3.19526 7.13547C3.32029 7.26049 3.48986 7.33073 3.66667 7.33073H6.33333V9.9974C6.33333 10.1742 6.40357 10.3438 6.5286 10.4688C6.65362 10.5938 6.82319 10.6641 7 10.6641C7.17681 10.6641 7.34638 10.5938 7.4714 10.4688C7.59643 10.3438 7.66667 10.1742 7.66667 9.9974V7.33073H10.3333C10.5101 7.33073 10.6797 7.26049 10.8047 7.13547C10.9298 7.01044 11 6.84087 11 6.66406C11 6.48725 10.9298 6.31768 10.8047 6.19266C10.6797 6.06763 10.5101 5.9974 10.3333 5.9974H7.66667V3.33073Z" fill="#6083F2"/>
</svg>
