<svg width="34" height="34" viewBox="0 0 34 34" fill="none" xmlns="http://www.w3.org/2000/svg">
<path d="M16.6667 29.4948C16.6667 30.2628 16.0444 30.8837 15.2778 30.8837H6.94444C3.11528 30.8837 0 27.7684 0 23.9392V7.27257C0 3.4434 3.11528 0.328125 6.94444 0.328125H23.6111C27.4403 0.328125 30.5556 3.4434 30.5556 7.27257V15.6059C30.5556 16.374 29.9333 16.9948 29.1667 16.9948C28.4 16.9948 27.7778 16.374 27.7778 15.6059V7.27257C27.7778 4.97535 25.9083 3.1059 23.6111 3.1059H6.94444C4.64722 3.1059 2.77778 4.97535 2.77778 7.27257V16.9378L6.67778 13.0378C8.80555 10.9087 12.2681 10.9087 14.3972 13.0378L21.8153 20.4559C22.3583 20.999 22.3583 21.8767 21.8153 22.4198C21.5444 22.6906 21.1889 22.8267 20.8333 22.8267C20.4778 22.8267 20.1222 22.6906 19.8514 22.4198L12.4333 15.0017C11.3889 13.9587 9.68889 13.9573 8.64167 15.0017L2.77778 20.8656V23.9392C2.77778 26.2365 4.64722 28.1059 6.94444 28.1059H15.2778C16.0444 28.1059 16.6667 28.7267 16.6667 29.4948ZM20.8333 5.18924C23.1306 5.18924 25 7.05868 25 9.3559C25 11.6531 23.1306 13.5226 20.8333 13.5226C18.5361 13.5226 16.6667 11.6531 16.6667 9.3559C16.6667 7.05868 18.5361 5.18924 20.8333 5.18924ZM20.8333 7.96701C20.0681 7.96701 19.4444 8.58924 19.4444 9.3559C19.4444 10.1226 20.0681 10.7448 20.8333 10.7448C21.5986 10.7448 22.2222 10.1226 22.2222 9.3559C22.2222 8.58924 21.5986 7.96701 20.8333 7.96701ZM31.9444 25.3281H27.7778V21.1615C27.7778 20.3934 27.1556 19.7726 26.3889 19.7726C25.6222 19.7726 25 20.3934 25 21.1615V25.3281H20.8333C20.0667 25.3281 19.4444 25.949 19.4444 26.717C19.4444 27.4851 20.0667 28.1059 20.8333 28.1059H25V32.2726C25 33.0406 25.6222 33.6615 26.3889 33.6615C27.1556 33.6615 27.7778 33.0406 27.7778 32.2726V28.1059H31.9444C32.7111 28.1059 33.3333 27.4851 33.3333 26.717C33.3333 25.949 32.7111 25.3281 31.9444 25.3281Z" fill="black"/>
</svg>
