<svg width="60" height="56" viewBox="0 0 60 56" fill="none" xmlns="http://www.w3.org/2000/svg">
<path d="M0.917969 34.04C0.917969 33.5946 1.45649 33.3716 1.77148 33.6865L10.0811 41.9951L20.0029 33.6005L24.2363 38.6025L14.7305 46.6445L23.2324 55.1464C23.5474 55.4614 23.3243 55.9998 22.8789 55.9999H1.41797C1.14203 55.9997 0.917969 55.7759 0.917969 55.4999V34.04Z" fill="#3986A3"/>
<path d="M30.5127 0.300781C32.322 0.300974 33.7891 1.76778 33.7891 3.57715V26.793L50.0303 43.0342L59.1465 33.918C59.4615 33.6034 59.9999 33.8262 60 34.2715V55.499C60 55.7751 59.776 55.9989 59.5 55.999H38.2725C37.827 55.999 37.604 55.4605 37.9189 55.1455L45.3965 47.667L27.2363 29.5068V3.57715C27.2363 1.76766 28.7032 0.300781 30.5127 0.300781Z" fill="#3986A3"/>
</svg>
