<svg width="38" height="34" viewBox="0 0 38 34" fill="none" xmlns="http://www.w3.org/2000/svg">
<rect width="38" height="34" rx="8" fill="#3986A3"/>
<path d="M13 15.499L12.4697 16.0292L11.9395 15.499L12.4697 14.9688L13 15.499ZM25.75 21.499C25.75 21.6979 25.6709 21.8887 25.5303 22.0293C25.3896 22.17 25.1989 22.249 25 22.249C24.801 22.249 24.6103 22.17 24.4696 22.0293C24.329 21.8887 24.25 21.6979 24.25 21.499H25.75ZM16.2197 19.7792L12.4697 16.0292L13.5302 14.9688L17.2802 18.7188L16.2197 19.7792ZM12.4697 14.9688L16.2197 11.2188L17.2802 12.2792L13.5302 16.0292L12.4697 14.9688ZM13 14.749H20.5V16.249H13V14.749ZM25.75 19.999V21.499H24.25V19.999H25.75ZM20.5 14.749C21.8923 14.749 23.2277 15.3021 24.2123 16.2867C25.1968 17.2713 25.75 18.6066 25.75 19.999H24.25C24.25 19.0044 23.8549 18.0506 23.1516 17.3473C22.4483 16.6441 21.4945 16.249 20.5 16.249V14.749Z" fill="white"/>
</svg>
